<svg xmlns="http://www.w3.org/2000/svg" width="77" height="77" class="pyqrcode"><path stroke="#000" d="M4 4.5h7m2 0h2m4 0h1m3 0h3m2 0h1m6 0h2m2 0h2m1 0h4m1 0h2m3 0h3m2 0h2m1 0h5m1 0h7m-69 1h1m5 0h1m1 0h2m2 0h8m1 0h2m1 0h1m2 0h1m4 0h1m1 0h1m2 0h1m2 0h1m1 0h1m3 0h1m1 0h2m3 0h1m1 0h1m6 0h1m5 0h1m-69 1h1m1 0h3m1 0h1m2 0h2m1 0h5m2 0h1m1 0h2m2 0h4m1 0h3m3 0h1m1 0h2m3 0h1m3 0h1m1 0h1m3 0h1m2 0h3m3 0h1m1 0h3m1 0h1m-69 1h1m1 0h3m1 0h1m3 0h1m2 0h5m1 0h2m1 0h1m2 0h2m1 0h2m1 0h6m1 0h1m3 0h3m1 0h1m2 0h1m1 0h2m4 0h1m2 0h1m1 0h1m1 0h3m1 0h1m-69 1h1m1 0h3m1 0h1m3 0h1m2 0h3m1 0h1m1 0h2m1 0h2m2 0h5m1 0h7m1 0h1m1 0h1m1 0h2m2 0h5m1 0h3m1 0h1m1 0h1m1 0h1m1 0h3m1 0h1m-69 1h1m5 0h1m1 0h1m4 0h1m4 0h1m1 0h2m1 0h1m3 0h1m2 0h3m3 0h2m1 0h1m1 0h1m1 0h1m2 0h1m1 0h1m2 0h1m1 0h1m1 0h2m1 0h1m3 0h1m5 0h1m-69 1h7m1 0h1m1 0h1m1 0h1m1 0h1m1 0h1m1 0h1m1 0h1m1 0h1m1 0h1m1 0h1m1 0h1m1 0h1m1 0h1m1 0h1m1 0h1m1 0h1m1 0h1m1 0h1m1 0h1m1 0h1m1 0h1m1 0h1m1 0h1m1 0h1m1 0h1m1 0h1m1 0h1m1 0h7m-61 1h1m3 0h2m1 0h5m2 0h4m3 0h2m1 0h1m3 0h1m3 0h9m4 0h1m1 0h2m1 0h3m-57 1h4m3 0h11m5 0h3m2 0h5m1 0h5m5 0h4m2 0h4m4 0h2m3 0h1m-65 1h3m1 0h1m1 0h2m1 0h1m1 0h1m1 0h1m1 0h1m3 0h2m1 0h1m4 0h2m1 0h2m3 0h1m3 0h3m3 0h3m3 0h1m1 0h2m1 0h5m2 0h2m-68 1h2m4 0h1m1 0h2m2 0h5m1 0h1m2 0h1m1 0h2m1 0h1m1 0h2m2 0h1m1 0h2m2 0h1m2 0h1m2 0h2m1 0h1m2 0h1m1 0h4m1 0h1m6 0h2m1 0h1m-66 1h1m1 0h1m3 0h2m3 0h1m1 0h1m1 0h2m1 0h1m1 0h5m1 0h1m1 0h1m2 0h1m1 0h3m3 0h1m1 0h4m1 0h1m1 0h2m1 0h1m2 0h2m1 0h1m1 0h1m1 0h3m1 0h2m-68 1h1m2 0h3m1 0h5m2 0h1m1 0h1m1 0h1m1 0h8m2 0h1m1 0h2m2 0h2m3 0h1m1 0h1m3 0h2m5 0h2m1 0h1m1 0h1m2 0h1m3 0h2m-69 1h1m1 0h2m3 0h1m5 0h1m1 0h1m1 0h2m1 0h1m2 0h8m1 0h4m1 0h2m1 0h2m1 0h3m1 0h4m2 0h4m3 0h1m1 0h1m3 0h1m1 0h1m-68 1h2m2 0h3m2 0h1m1 0h1m1 0h1m2 0h1m2 0h1m1 0h2m1 0h1m1 0h1m2 0h1m1 0h7m1 0h2m1 0h2m1 0h2m2 0h3m1 0h1m2 0h1m1 0h2m1 0h4m1 0h1m-65 1h1m4 0h3m1 0h1m1 0h1m1 0h2m2 0h1m1 0h3m1 0h1m11 0h1m2 0h1m1 0h4m1 0h1m2 0h3m1 0h3m1 0h3m1 0h1m1 0h2m-65 1h2m2 0h1m3 0h3m2 0h2m1 0h9m1 0h1m4 0h3m2 0h1m2 0h4m2 0h5m2 0h1m1 0h1m1 0h2m2 0h1m4 0h2m-60 1h2m2 0h2m2 0h3m1 0h1m1 0h2m3 0h4m1 0h1m1 0h2m1 0h5m1 0h1m2 0h4m3 0h3m2 0h4m2 0h3m-67 1h1m1 0h2m1 0h4m7 0h3m1 0h2m2 0h1m1 0h3m1 0h1m1 0h1m1 0h4m3 0h1m2 0h1m1 0h1m2 0h5m2 0h2m1 0h1m2 0h1m3 0h1m-67 1h2m2 0h1m2 0h4m3 0h2m4 0h1m1 0h2m3 0h9m2 0h1m1 0h1m1 0h1m1 0h4m2 0h1m4 0h1m2 0h1m1 0h1m1 0h1m3 0h1m-68 1h2m2 0h1m1 0h2m5 0h3m1 0h2m1 0h1m3 0h1m3 0h2m1 0h3m2 0h1m3 0h4m1 0h1m2 0h1m1 0h1m2 0h6m2 0h3m3 0h2m-69 1h1m1 0h1m2 0h1m2 0h1m1 0h1m1 0h2m2 0h1m3 0h1m2 0h1m2 0h1m1 0h2m2 0h1m1 0h1m4 0h1m2 0h3m3 0h1m1 0h1m2 0h3m1 0h1m1 0h2m1 0h4m1 0h1m-66 1h1m3 0h3m1 0h2m1 0h1m2 0h2m1 0h1m2 0h1m1 0h11m1 0h1m1 0h2m1 0h1m1 0h1m2 0h2m1 0h4m1 0h1m1 0h1m5 0h1m3 0h1m-60 1h1m2 0h1m3 0h1m1 0h1m1 0h2m1 0h1m3 0h2m1 0h1m2 0h1m2 0h1m1 0h2m1 0h1m3 0h1m1 0h4m1 0h1m2 0h1m2 0h2m1 0h4m1 0h1m-65 1h3m3 0h1m2 0h3m2 0h1m1 0h1m1 0h1m1 0h1m2 0h1m3 0h3m1 0h1m3 0h2m1 0h5m4 0h3m1 0h1m2 0h3m1 0h1m4 0h1m1 0h1m1 0h2m-68 1h2m1 0h2m1 0h1m5 0h8m4 0h1m2 0h1m2 0h4m4 0h1m1 0h1m1 0h2m2 0h5m2 0h3m3 0h1m1 0h1m2 0h1m2 0h1m-69 1h1m2 0h11m5 0h1m2 0h1m1 0h2m6 0h8m1 0h3m1 0h1m4 0h2m1 0h2m2 0h1m1 0h1m2 0h3m1 0h2m-66 1h1m1 0h1m3 0h2m3 0h1m2 0h4m4 0h1m2 0h2m4 0h1m1 0h1m3 0h4m1 0h5m2 0h1m1 0h1m5 0h1m3 0h1m3 0h2m-69 1h4m2 0h1m2 0h1m3 0h3m3 0h2m3 0h1m2 0h1m2 0h1m2 0h1m1 0h3m1 0h2m1 0h1m2 0h2m1 0h1m1 0h2m2 0h1m3 0h1m2 0h2m4 0h2m-68 1h1m3 0h1m2 0h3m3 0h1m1 0h2m1 0h2m4 0h5m1 0h1m1 0h2m1 0h2m7 0h1m2 0h3m2 0h3m1 0h1m2 0h5m1 0h2m-67 1h1m1 0h2m1 0h2m5 0h1m1 0h1m1 0h1m1 0h1m1 0h2m1 0h1m1 0h1m1 0h1m1 0h1m3 0h3m1 0h1m1 0h2m1 0h1m1 0h1m1 0h1m1 0h1m1 0h1m1 0h1m1 0h3m1 0h1m2 0h1m2 0h1m-65 1h2m4 0h1m1 0h1m1 0h3m4 0h1m1 0h1m3 0h1m1 0h2m2 0h5m3 0h3m1 0h1m2 0h4m2 0h1m1 0h2m2 0h1m1 0h1m2 0h4m-66 1h2m1 0h7m1 0h1m2 0h2m4 0h3m3 0h1m1 0h2m2 0h9m1 0h1m4 0h4m4 0h2m1 0h1m1 0h5m2 0h2m-65 1h1m3 0h3m2 0h1m1 0h1m4 0h1m3 0h1m1 0h1m3 0h1m1 0h1m3 0h1m4 0h1m1 0h2m4 0h2m3 0h2m3 0h2m3 0h2m-66 1h3m1 0h1m1 0h1m1 0h4m3 0h5m4 0h1m3 0h1m3 0h1m1 0h1m1 0h1m5 0h2m1 0h1m2 0h1m1 0h5m2 0h1m2 0h1m1 0h1m1 0h2m-66 1h2m2 0h1m3 0h3m2 0h2m3 0h1m3 0h4m1 0h1m2 0h3m3 0h1m3 0h1m3 0h1m2 0h3m1 0h3m2 0h2m1 0h2m3 0h1m2 0h1m-68 1h3m1 0h6m1 0h2m3 0h2m1 0h1m1 0h1m1 0h3m6 0h6m2 0h1m3 0h1m1 0h3m1 0h8m2 0h5m2 0h2m-69 1h4m6 0h5m1 0h4m1 0h1m1 0h1m1 0h1m3 0h2m1 0h2m1 0h3m3 0h2m2 0h2m1 0h1m1 0h1m1 0h1m1 0h2m5 0h1m1 0h1m2 0h2m-67 1h3m2 0h4m1 0h1m4 0h1m3 0h2m1 0h1m1 0h1m2 0h1m5 0h1m1 0h1m1 0h1m4 0h1m1 0h2m1 0h1m1 0h1m5 0h1m3 0h1m2 0h3m1 0h1m-65 1h1m1 0h1m1 0h1m1 0h1m3 0h2m2 0h1m3 0h3m1 0h3m1 0h4m1 0h1m2 0h2m3 0h2m1 0h4m1 0h4m2 0h3m1 0h1m1 0h4m-66 1h3m2 0h2m2 0h1m5 0h1m1 0h4m1 0h1m1 0h5m4 0h2m6 0h2m1 0h2m2 0h2m4 0h4m3 0h2m1 0h1m3 0h1m-69 1h3m1 0h1m2 0h1m1 0h1m3 0h1m2 0h1m1 0h2m1 0h1m3 0h1m4 0h2m3 0h1m4 0h1m1 0h5m1 0h3m3 0h4m2 0h1m1 0h1m4 0h1m-68 1h2m3 0h4m1 0h3m1 0h1m1 0h2m2 0h2m2 0h3m1 0h1m2 0h2m2 0h2m1 0h1m2 0h1m1 0h2m2 0h1m2 0h5m4 0h1m1 0h1m2 0h1m-64 1h1m6 0h2m1 0h1m1 0h1m3 0h1m1 0h2m2 0h1m1 0h1m5 0h1m2 0h3m2 0h1m1 0h7m3 0h1m1 0h1m2 0h4m2 0h1m-63 1h4m2 0h1m5 0h1m5 0h3m1 0h1m3 0h1m1 0h3m1 0h1m1 0h2m1 0h6m3 0h2m1 0h3m2 0h1m1 0h1m3 0h1m1 0h1m1 0h1m2 0h2m-65 1h2m4 0h1m1 0h1m3 0h2m2 0h1m1 0h1m1 0h1m2 0h2m1 0h4m1 0h2m3 0h1m4 0h2m2 0h2m2 0h4m2 0h2m1 0h2m3 0h1m-68 1h1m1 0h3m1 0h6m1 0h1m1 0h2m1 0h1m1 0h1m3 0h1m1 0h2m3 0h3m1 0h4m1 0h1m3 0h2m2 0h1m1 0h1m1 0h4m1 0h2m2 0h1m1 0h3m1 0h1m-67 1h1m1 0h3m3 0h3m1 0h1m1 0h1m1 0h1m1 0h1m2 0h2m2 0h2m2 0h2m2 0h1m1 0h2m3 0h1m2 0h1m1 0h3m1 0h2m1 0h2m1 0h3m1 0h3m1 0h2m-65 1h3m1 0h3m1 0h1m1 0h2m1 0h1m1 0h1m2 0h1m2 0h2m1 0h2m3 0h1m1 0h1m1 0h2m1 0h1m1 0h4m2 0h1m2 0h3m3 0h3m4 0h2m1 0h2m-66 1h2m1 0h3m1 0h1m1 0h1m2 0h1m1 0h2m1 0h1m3 0h3m4 0h1m1 0h2m4 0h2m1 0h1m4 0h1m3 0h1m1 0h1m2 0h4m4 0h3m2 0h2m-68 1h1m1 0h2m2 0h1m1 0h2m3 0h3m1 0h2m2 0h2m1 0h1m3 0h3m1 0h4m3 0h1m4 0h1m2 0h1m2 0h3m1 0h1m2 0h1m1 0h1m4 0h2m-66 1h3m2 0h1m1 0h1m1 0h1m3 0h3m1 0h1m1 0h1m1 0h1m3 0h2m4 0h1m1 0h1m1 0h3m1 0h2m4 0h4m4 0h1m1 0h2m2 0h1m5 0h1m-66 1h2m2 0h3m1 0h1m1 0h4m1 0h1m3 0h1m1 0h1m3 0h2m2 0h1m4 0h1m1 0h3m1 0h1m3 0h1m1 0h1m1 0h3m3 0h1m1 0h1m3 0h1m6 0h2m-62 1h1m1 0h1m3 0h2m1 0h3m1 0h3m1 0h1m3 0h2m6 0h1m2 0h2m1 0h4m1 0h4m1 0h1m1 0h1m1 0h1m2 0h3m4 0h2m-68 1h4m2 0h2m2 0h1m2 0h1m2 0h4m1 0h3m5 0h4m4 0h4m2 0h1m2 0h3m1 0h6m5 0h1m1 0h1m2 0h2m-68 1h6m1 0h1m2 0h2m1 0h1m1 0h1m4 0h2m1 0h2m4 0h1m3 0h1m2 0h3m2 0h2m3 0h3m2 0h1m1 0h2m1 0h1m1 0h1m1 0h1m1 0h2m3 0h2m-69 1h1m1 0h1m2 0h3m3 0h2m8 0h2m2 0h1m1 0h2m1 0h1m1 0h2m2 0h1m2 0h2m1 0h2m1 0h1m2 0h2m5 0h2m4 0h2m1 0h1m1 0h3m-68 1h5m1 0h1m2 0h1m1 0h1m1 0h8m2 0h2m1 0h1m2 0h2m1 0h1m1 0h1m1 0h4m1 0h2m2 0h1m1 0h1m1 0h1m3 0h2m1 0h1m1 0h4m3 0h2m-68 1h1m1 0h1m1 0h4m2 0h1m2 0h2m7 0h2m1 0h3m2 0h2m1 0h1m3 0h1m1 0h6m1 0h2m2 0h5m1 0h4m3 0h3m1 0h1m-68 1h1m6 0h1m2 0h5m1 0h1m1 0h1m4 0h6m1 0h1m3 0h5m1 0h1m2 0h5m3 0h1m1 0h1m1 0h3m1 0h1m3 0h2m-65 1h1m2 0h2m1 0h4m1 0h1m1 0h2m1 0h2m2 0h2m1 0h1m1 0h1m1 0h1m1 0h2m1 0h6m1 0h1m1 0h2m4 0h5m2 0h3m1 0h1m1 0h5m1 0h1m-59 1h2m4 0h2m1 0h2m1 0h1m1 0h1m1 0h4m1 0h1m2 0h1m3 0h2m10 0h5m1 0h3m3 0h1m3 0h2m1 0h2m-69 1h7m1 0h4m1 0h3m1 0h1m3 0h3m1 0h2m3 0h3m1 0h1m1 0h1m1 0h1m2 0h5m1 0h1m1 0h6m2 0h1m1 0h2m1 0h1m1 0h2m1 0h1m-68 1h1m5 0h1m1 0h1m1 0h1m2 0h4m3 0h10m1 0h2m3 0h1m1 0h2m3 0h1m2 0h3m2 0h1m1 0h1m2 0h1m2 0h2m3 0h1m-65 1h1m1 0h3m1 0h1m1 0h1m2 0h2m2 0h3m1 0h3m2 0h1m2 0h4m1 0h5m1 0h4m3 0h2m1 0h3m2 0h1m2 0h2m2 0h5m2 0h2m-69 1h1m1 0h3m1 0h1m2 0h3m2 0h2m2 0h1m2 0h1m1 0h1m2 0h2m3 0h1m4 0h1m2 0h1m1 0h1m6 0h3m2 0h2m2 0h1m1 0h1m1 0h2m1 0h1m1 0h3m-69 1h1m1 0h3m1 0h1m2 0h2m1 0h2m1 0h3m2 0h8m4 0h3m2 0h2m2 0h4m1 0h2m2 0h3m1 0h2m1 0h1m1 0h1m2 0h1m1 0h1m1 0h1m-67 1h1m5 0h1m2 0h2m1 0h1m2 0h1m2 0h1m1 0h3m3 0h3m1 0h3m1 0h1m2 0h1m4 0h3m1 0h3m1 0h1m2 0h1m2 0h2m1 0h3m1 0h2m-65 1h7m7 0h1m2 0h1m1 0h1m2 0h1m2 0h2m1 0h4m1 0h1m1 0h2m2 0h4m2 0h1m2 0h2m3 0h4m1 0h2m1 0h1m2 0h2m2 0h1" class="pyqrline"/></svg>